<?xml version="1.0" encoding="UTF-8" standalone="no"?>
<!-- Created with Inkscape (http://www.inkscape.org/) -->

<svg
   version="1.1"
   id="svg1"
   width="253.07332"
   height="151.36351"
   viewBox="0 0 253.07332 151.36351"
   sodipodi:docname="favicon.svg"
   inkscape:version="1.3.2 (091e20ef0f, 2023-11-25, custom)"
   inkscape:export-filename="favicon.svg"
   inkscape:export-xdpi="96"
   inkscape:export-ydpi="96"
   xmlns:inkscape="http://www.inkscape.org/namespaces/inkscape"
   xmlns:sodipodi="http://sodipodi.sourceforge.net/DTD/sodipodi-0.dtd"
   xmlns="http://www.w3.org/2000/svg"
   xmlns:svg="http://www.w3.org/2000/svg">
  <sodipodi:namedview
     id="namedview1"
     pagecolor="#ffffff"
     bordercolor="#666666"
     borderopacity="1.0"
     inkscape:showpageshadow="2"
     inkscape:pageopacity="0.0"
     inkscape:pagecheckerboard="true"
     inkscape:deskcolor="#d1d1d1"
     inkscape:zoom="2.3393999"
     inkscape:cx="119.68881"
     inkscape:cy="32.059504"
     inkscape:window-width="1276"
     inkscape:window-height="1396"
     inkscape:window-x="1280"
     inkscape:window-y="0"
     inkscape:window-maximized="1"
     inkscape:current-layer="g1" />
  <defs
     id="defs1" />
  <g
     id="g1"
     style="stroke:#ffffff;stroke-width:3;stroke-dasharray:none;stroke-opacity:1"
     transform="translate(-17.625609,-11.371655)">
    <path
       style="fill:#000000;stroke:#ffffff;stroke-width:4.7;stroke-dasharray:none;stroke-opacity:1;fill-opacity:1"
       d="m 126.97015,160.71323 c -6.23334,-0.53869 -13.83657,-1.41364 -16.89608,-1.94434 -5.61733,-0.97438 -17.770586,-7.72277 -17.770586,-9.86755 0,-0.63835 -5.25,-1.88462 -11.666667,-2.76949 -62.934347,-8.67872 -80.84546161,-33.97507 -38.63362,-54.563278 9.508888,-4.63782 34.300286,-12.86559 34.300286,-11.38358 0,0.28661 -0.748955,1.72038 -1.664345,3.18615 -1.356614,2.17228 -1.294982,3.32243 0.333333,6.22049 7.801699,13.885388 64.488319,20.295698 109.176369,12.346018 21.93789,-3.902588 33.44747,-11.202688 29.4472,-18.677258 -1.79209,-3.34855 -0.60034,-3.33722 11.84912,0.1127 19.68117,5.45393 37.5044,16.23266 42.35636,25.615308 2.44924,4.73631 1.71204,10.23715 -2.08695,15.57233 -5.68304,7.98109 -28.46428,16.75215 -54.07775,20.82059 -11.14315,1.76997 -15.46747,3.04891 -18,5.32358 -5.20615,4.67605 -10.94584,7.08595 -20.16593,8.46699 -12.94369,1.93877 -33.874,2.63254 -46.50074,1.54134 z m 73.33333,-24.58822 c 26.001,-3.73936 38.97817,-6.94009 49.41709,-12.18838 7.24704,-3.64354 9.58982,-6.16196 8.46327,-9.09772 -1.09628,-2.85685 -3.96198,-2.74061 -9.05631,0.36734 -17.81522,10.86876 -78.87846,17.83073 -130.15738,14.83959 -39.418014,-2.29929 -67.286026,-7.57539 -80.666668,-15.2722 -5.880207,-3.3824 -8.666667,-3.1875 -8.666667,0.6062 0,8.7594 30.966064,18.44295 71.999995,22.51548 18.25376,1.81165 81.67215,0.67378 98.66667,-1.77031 z m -52,-15.45509 c 3.29937,-3.29937 3.3154,-4.23676 0.13956,-8.15876 -2.17312,-2.6837 -3.06027,-2.93409 -6.33333,-1.78755 -4.59278,1.60882 -5.71501,6.36381 -2.37339,10.05627 2.95133,3.26118 5.22521,3.232 8.56716,-0.10996 z M 72.531829,110.46326 c 3.025581,-2.73811 3.099737,-5.51918 0.231671,-8.68836 -2.968466,-3.280118 -6.530582,-3.073488 -9.051078,0.52502 -2.67111,3.81354 -2.618952,4.49331 0.591061,7.70333 3.243633,3.24363 5.041425,3.34414 8.228346,0.46001 z m 151.771651,-0.46001 c 1.46667,-1.46667 2.66667,-3.13317 2.66667,-3.70333 0,-2.41152 -4.34505,-6.963338 -6.64703,-6.963338 -3.1985,0 -6.6863,3.477558 -6.6863,6.666668 0,2.93785 3.4092,6.66666 6.09524,6.66666 1.04761,0 3.10476,-1.2 4.57142,-2.66666 z M 115.04221,95.264062 c -10.18063,-1.27206 -21.772904,-3.9181 -28.578705,-6.52333 l -3.839979,-1.46993 0.666056,-13.63378 c 1.054157,-21.57797 9.054813,-24.861302 23.063978,-33.6792 11.30772,-7.117505 19.75641,-11.89158 34.07771,-12.67329 19.2252,-1.04938 32.49869,6.637905 47.24715,18.50856 10.54371,8.486358 17.85224,14.10868 17.93159,34.39872 0.0263,6.71878 -0.0755,6.89617 -5.11369,8.91205 -14.68457,5.8756 -61.00688,9.21487 -85.45411,6.1602 z m 68.42534,-12.64603 11.83074,-2.29944 -0.61864,-9.63965 c -0.85807,-13.370467 -14.21231,-19.295927 -28.99512,-28.74159 -6.19948,-3.961236 -8.86324,-3.62231 -21.40508,-3.62991 -13.16306,-0.008 -14.56579,0.25959 -22.92981,4.37383 -16.27496,8.00561 -26.674362,14.131134 -27.439118,27.34186 l -0.601449,10.38969 7.357317,1.52737 c 21.9906,4.56523 61.15093,4.88581 82.80116,0.67784 z m -81.66028,-8.913677 c -1.33886,-1.33886 -1.16836,-5.66622 0.45334,-11.50566 1.12847,-4.06345 2.00903,-5 4.70108,-5 4.25519,0 5.2489,2.76899 3.75915,10.47497 -1.01575,5.25412 -1.70931,6.25144 -4.58024,6.58624 -1.86078,0.217 -3.81078,-0.033 -4.33333,-0.55555 z"
       id="path1"
       sodipodi:nodetypes="ssscsssssssssssssssssssssssssssssssssssssssscsssssssscssssscssssssss" />
  </g>
</svg>
